<svg xmlns="http://www.w3.org/2000/svg" width="620" height="336" viewBox="0 0 620 336" fill="none">
  <rect width="620" height="336" fill="#0C7C3D"></rect>
  <path transform="translate(42,60)" d="M13.34 0L2.24 0L2.24-18.20L13.23-18.20L13.23-16.69L3.90-16.69L3.90-9.88L12.51-9.88L12.51-8.37L3.90-8.37L3.90-1.51L13.34-1.51L13.34 0ZM37.21 0L25.98 0L25.98-18.20L27.64-18.20L27.64-1.51L37.21-1.51L37.21 0ZM66.57 0L64.91 0L64.91-18.20L75.72-18.20L75.72-16.69L66.57-16.69L66.57-9.88L74.97-9.88L74.97-8.37L66.57-8.37L66.57 0ZM94.40 0.36L94.40 0.36Q92.45 0.36 90.98-0.33Q89.51-1.01 88.68-2.42Q87.84-3.82 87.84-5.95L87.84-5.95L87.84-18.20L89.51-18.20L89.51-5.95Q89.51-3.51 90.80-2.33Q92.08-1.14 94.40-1.14L94.40-1.14Q96.71-1.14 98.00-2.33Q99.28-3.51 99.28-5.95L99.28-5.95L99.28-18.20L100.95-18.20L100.95-5.95Q100.95-3.82 100.13-2.42Q99.31-1.01 97.83-0.33Q96.35 0.36 94.40 0.36ZM94.79-19.71L93.17-19.71L94.89-22.78L96.92-22.78L94.79-19.71ZM120.50 0L118.84 0L118.84-16.69L112.76-16.69L112.76-18.20L126.59-18.20L126.59-16.69L120.50-16.69L120.50 0ZM146.51 0L137.56 0L137.56-1.51L140.16-1.51L140.16-16.69L137.56-16.69L137.56-18.20L146.59-18.20Q148.15-18.20 149.37-17.63Q150.59-17.06 151.28-16.03Q151.97-15.00 151.97-13.65L151.97-13.65L151.97-13.44Q151.97-12.17 151.47-11.34Q150.98-10.50 150.28-10.04Q149.58-9.57 148.90-9.36L148.90-9.36L148.90-9.05Q149.58-8.89 150.29-8.41Q151.01-7.93 151.49-7.10Q151.97-6.27 151.97-4.99L151.97-4.99L151.97-4.73Q151.97-3.25 151.25-2.18Q150.54-1.12 149.30-0.56Q148.07 0 146.51 0L146.51 0ZM141.83-8.42L141.83-1.51L146.35-1.51Q148.30-1.51 149.30-2.42Q150.30-3.33 150.30-4.86L150.30-4.86L150.30-5.07Q150.30-6.60 149.30-7.51Q148.30-8.42 146.35-8.42L146.35-8.42L141.83-8.42ZM141.83-16.69L141.83-9.93L146.46-9.93Q148.25-9.93 149.28-10.83Q150.30-11.73 150.30-13.18L150.30-13.18L150.30-13.44Q150.30-14.90 149.28-15.80Q148.25-16.69 146.46-16.69L146.46-16.69L141.83-16.69ZM171.13 0.36L171.13 0.36Q167.94 0.36 166.04-1.52Q164.14-3.41 164.14-7.05L164.14-7.05L164.14-11.15Q164.14-14.79 166.04-16.68Q167.94-18.56 171.13-18.56L171.13-18.56Q174.33-18.56 176.23-16.68Q178.13-14.79 178.13-11.15L178.13-11.15L178.13-7.05Q178.13-3.41 176.23-1.52Q174.33 0.36 171.13 0.36ZM171.13-1.14L171.13-1.14Q173.68-1.14 175.07-2.68Q176.46-4.21 176.46-6.99L176.46-6.99L176.46-11.21Q176.46-13.99 175.07-15.52Q173.68-17.06 171.13-17.06L171.13-17.06Q168.61-17.06 167.21-15.52Q165.80-13.99 165.80-11.21L165.80-11.21L165.80-6.99Q165.80-4.21 167.21-2.68Q168.61-1.14 171.13-1.14ZM202.26 0L191.03 0L191.03-18.20L192.69-18.20L192.69-1.51L202.26-1.51L202.26 0ZM235.89 0L228.97 0L228.97-1.51L231.57-1.51L231.57-16.69L228.97-16.69L228.97-18.20L235.89-18.20Q239.45-18.20 241.44-16.39Q243.43-14.59 243.43-10.76L243.43-10.76L243.43-7.41Q243.43-3.59 241.44-1.79Q239.45 0 235.89 0L235.89 0ZM233.23-16.67L233.23-1.51L235.89-1.51Q238.75-1.51 240.25-2.89Q241.76-4.26 241.76-7.33L241.76-7.33L241.76-10.84Q241.76-13.94 240.25-15.30Q238.75-16.67 235.89-16.67L235.89-16.67L233.23-16.67ZM267.27 0L256.17 0L256.17-18.20L267.17-18.20L267.17-16.69L257.83-16.69L257.83-9.88L266.44-9.88L266.44-8.37L257.83-8.37L257.83-1.51L267.27-1.51L267.27 0ZM306.85 0L295.62 0L295.62-18.20L297.28-18.20L297.28-1.51L306.85-1.51L306.85 0ZM325.26 0.36L325.26 0.36Q322.07 0.36 320.17-1.52Q318.27-3.41 318.27-7.05L318.27-7.05L318.27-11.15Q318.27-14.79 320.17-16.68Q322.07-18.56 325.26-18.56L325.26-18.56Q328.46-18.56 330.36-16.68Q332.26-14.79 332.26-11.15L332.26-11.15L332.26-7.05Q332.26-3.41 330.36-1.52Q328.46 0.36 325.26 0.36ZM325.26-1.14L325.26-1.14Q327.81-1.14 329.20-2.68Q330.59-4.21 330.59-6.99L330.59-6.99L330.59-11.21Q330.59-13.99 329.20-15.52Q327.81-17.06 325.26-17.06L325.26-17.06Q322.74-17.06 321.34-15.52Q319.93-13.99 319.93-11.21L319.93-11.21L319.93-6.99Q319.93-4.21 321.34-2.68Q322.74-1.14 325.26-1.14ZM351.11 0.36L351.11 0.36Q349.16 0.36 347.63-0.33Q346.09-1.01 345.21-2.43Q344.33-3.85 344.33-6.03L344.33-6.03L344.33-6.53L345.99-6.53L345.99-6.03Q345.99-3.51 347.43-2.30Q348.88-1.09 351.11-1.09L351.11-1.09Q353.37-1.09 354.60-2.15Q355.82-3.20 355.82-4.84L355.82-4.84Q355.82-5.93 355.28-6.59Q354.75-7.25 353.80-7.66Q352.85-8.06 351.61-8.37L351.61-8.37L349.94-8.79Q348.46-9.18 347.29-9.76Q346.12-10.35 345.44-11.30Q344.77-12.25 344.77-13.73L344.77-13.73Q344.77-15.21 345.53-16.30Q346.30-17.39 347.65-17.98Q349.01-18.56 350.80-18.56L350.80-18.56Q352.59-18.56 354.04-17.94Q355.48-17.32 356.32-16.11Q357.17-14.90 357.17-13.08L357.17-13.08L357.17-11.86L355.51-11.86L355.51-13.08Q355.51-14.51 354.88-15.39Q354.26-16.28 353.19-16.69Q352.13-17.11 350.80-17.11L350.80-17.11Q348.90-17.11 347.67-16.24Q346.43-15.37 346.43-13.73L346.43-13.73Q346.43-12.64 346.94-11.99Q347.45-11.34 348.37-10.95Q349.29-10.56 350.54-10.24L350.54-10.24L352.20-9.83Q353.63-9.49 354.83-8.93Q356.03-8.37 356.75-7.40Q357.48-6.42 357.48-4.84L357.48-4.84Q357.48-3.25 356.69-2.08Q355.90-0.91 354.47-0.27Q353.04 0.36 351.11 0.36Z" fill="#8FE0AC"></path>
  <path transform="translate(42,256)" d="M77.34 0L7.62 0L7.62-171.88L41.99-171.88L41.99-29.30L77.34-29.30L77.34 0ZM128.86 1.56L128.86 1.56Q107.37 1.56 97.21-10.50Q87.06-22.56 87.06-46.00L87.06-46.00L87.06-171.88L120.46-171.88L120.46-47.36Q120.46-43.07 120.95-39.11Q121.43-35.16 123.19-32.62Q124.95-30.08 128.86-30.08L128.86-30.08Q132.86-30.08 134.62-32.57Q136.38-35.06 136.81-39.06Q137.25-43.07 137.25-47.36L137.25-47.36L137.25-171.88L170.65-171.88L170.65-46.00Q170.65-22.56 160.50-10.50Q150.34 1.56 128.86 1.56ZM219.43 0L185.84 0L185.84-171.88L221.19-171.88L237.01-89.55L237.01-171.88L270.21-171.88L270.21 0L236.62 0L219.43-85.94L219.43 0ZM358.44 0L287.45 0L287.45-171.88L356.20-171.88L356.20-138.67L322.41-138.67L322.41-105.18L354.83-105.18L354.83-72.85L322.41-72.85L322.41-33.50L358.44-33.50L358.44 0ZM412.59 1.56L412.59 1.56Q389.05 1.56 378.65-10.16Q368.25-21.88 368.25-47.46L368.25-47.46L368.25-64.26L402.24-64.26L402.24-42.77Q402.24-36.82 404.04-33.45Q405.85-30.08 410.34-30.08L410.34-30.08Q415.03-30.08 416.84-32.81Q418.64-35.55 418.64-41.80L418.64-41.80Q418.64-49.71 417.08-55.03Q415.52-60.35 411.66-65.19Q407.80-70.02 400.97-76.46L400.97-76.46L385.54-91.11Q368.25-107.42 368.25-128.42L368.25-128.42Q368.25-150.39 378.46-161.91Q388.66-173.44 408-173.44L408-173.44Q431.63-173.44 441.54-160.84Q451.46-148.24 451.46-122.56L451.46-122.56L416.50-122.56L416.50-134.38Q416.50-137.89 414.49-139.84Q412.49-141.80 409.07-141.80L409.07-141.80Q404.97-141.80 403.07-139.50Q401.16-137.21 401.16-133.59L401.16-133.59Q401.16-129.98 403.12-125.78Q405.07-121.58 410.83-116.11L410.83-116.11L430.66-97.07Q436.61-91.41 441.59-85.11Q446.57-78.81 449.60-70.46Q452.63-62.11 452.63-50.10L452.63-50.10Q452.63-25.88 443.69-12.16Q434.76 1.56 412.59 1.56Z" fill="#ffffff"></path>
  <g transform="translate(508,92) scale(1.2)" fill="none" stroke="#ffffff" stroke-width="3.4" stroke-linecap="round" stroke-linejoin="round"><circle cx="24" cy="24" r="21"></circle><polygon points="24,15 32.56,21.22 29.29,31.28 18.71,31.28 15.44,21.22" fill="#ffffff"></polygon><path d="M24,15 L24,3 M32.56,21.22 L43.97,17.51 M29.29,31.28 L36.34,40.99 M18.71,31.28 L11.66,40.99 M15.44,21.22 L4.03,17.51"></path></g>
  
</svg>